Coordinates
version=1
nRows=38
nColumns=12
inDegrees=yes

Units are S.I. units (second, meters, Newtons, ...)
Angles are in degrees

endheader
time	SC_y	SC_z	SC_x	AC_y	AC_z	AC_x	GH_y	GH_z	GH_yy	EL_x	PS_y
       0.0               -19.2          12.21          42.33          53.65          -6.51         -12.44         -84.22        -0.5256         -85.61          48.04          28.65
   0.02938              -19.21          12.21          42.33          53.65          -6.51         -12.44         -84.19        -0.5161         -85.59          48.05          28.66
   0.05876              -19.21          12.21          42.33          53.65          -6.51         -12.44         -84.15        -0.5061         -85.56          48.06          28.67
   0.08814              -19.22          12.21          42.33          53.65          -6.51         -12.43         -84.11        -0.4954         -85.52          48.07          28.68
    0.1175              -19.23           12.2          42.33          53.66          -6.51         -12.43         -84.08         -0.484         -85.49          48.08           28.7
    0.1469              -19.23           12.2          42.33          53.66          -6.51         -12.43         -84.03        -0.4718         -85.45          48.09          28.71
    0.1763              -19.24           12.2          42.33          53.66          -6.51         -12.43         -83.99        -0.4589         -85.42           48.1          28.73
    0.2057              -19.25           12.2          42.33          53.66          -6.51         -12.42         -83.94         -0.445         -85.37          48.11          28.74
     0.235              -19.26           12.2          42.33          53.66          -6.51         -12.42         -83.89        -0.4301         -85.33          48.13          28.76
    0.2644              -19.27           12.2          42.33          53.66          -6.51         -12.42         -83.84        -0.4142         -85.28          48.14          28.78
    0.2938              -19.28           12.2          42.33          53.66          -6.51         -12.41         -83.78        -0.3971         -85.23          48.16           28.8
    0.3232              -19.29           12.2          42.33          53.67          -6.51         -12.41         -83.71        -0.3787         -85.18          48.17          28.82
    0.3526               -19.3           12.2          42.32          53.67          -6.51         -12.41         -83.64        -0.3588         -85.12          48.19          28.84
    0.3819              -19.31           12.2          42.32          53.67          -6.51          -12.4         -83.57        -0.3374         -85.06          48.21          28.87
    0.4113              -19.33           12.2          42.32          53.67          -6.51          -12.4         -83.49        -0.3142         -84.99          48.23           28.9
    0.4407              -19.34           12.2          42.32          53.68          -6.51         -12.39          -83.4         -0.289         -84.91          48.26          28.93
    0.4701              -19.36           12.2          42.32          53.68          -6.51         -12.39         -83.31        -0.2617         -84.83          48.28          28.96
    0.4995              -19.38           12.2          42.32          53.68          -6.51         -12.38         -83.21        -0.2319         -84.74          48.31           29.0
    0.5288               -19.4           12.2          42.32          53.69          -6.51         -12.38          -83.1        -0.1994         -84.64          48.34          29.03
    0.5582              -19.42           12.2          42.32          53.69          -6.51         -12.37         -82.97        -0.1638         -84.54          48.37          29.08
    0.5876              -19.44           12.2          42.32          53.69          -6.51         -12.36         -82.84        -0.1246         -84.42          48.41          29.12
     0.617              -19.47           12.2          42.32           53.7          -6.51         -12.35         -82.69        -0.0816          -84.3          48.45          29.17
    0.6464               -19.5           12.2          42.31           53.7          -6.51         -12.34         -82.53       -0.03405         -84.15          48.49          29.23
    0.6757              -19.53           12.2          42.31          53.71          -6.51         -12.33         -82.35        0.01862          -84.0          48.54          29.29
    0.7051              -19.56          12.19          42.31          53.71         -6.511         -12.32         -82.14        0.07718         -83.82           48.6          29.36
    0.7345               -19.6          12.19          42.31          53.72         -6.511         -12.31         -81.92         0.1425         -83.63          48.66          29.44
    0.7639              -19.65          12.19          42.31          53.73         -6.511          -12.3         -81.67         0.2157         -83.41          48.73          29.53
    0.7933               -19.7          12.19           42.3          53.74         -6.511         -12.28         -81.38         0.2981         -83.17           48.8          29.62
    0.8226              -19.75          12.19           42.3          53.75         -6.511         -12.26         -81.06         0.3911         -82.89          48.89          29.73
     0.852              -19.82          12.19           42.3          53.76         -6.511         -12.24          -80.7         0.4968         -82.58          48.99          29.86
    0.8814              -19.89          12.18          42.29          53.77         -6.511         -12.22         -80.29         0.6173         -82.22           49.1           30.0
    0.9108              -19.97          12.18          42.29          53.79         -6.511         -12.19         -79.81         0.7557         -81.81          49.23          30.17
    0.9402              -20.07          12.18          42.28           53.8         -6.512         -12.16         -79.26         0.9155         -81.33          49.38          30.36
    0.9695              -20.18          12.17          42.28          53.82         -6.512         -12.13         -78.62          1.101         -80.78          49.55          30.58
    0.9989              -20.31          12.17          42.27          53.85         -6.512         -12.08         -77.87          1.318         -80.14          49.75          30.84
     1.028              -20.46          12.16          42.26          53.87         -6.512         -12.04         -76.99          1.574         -79.38          49.99          31.14
     1.058              -20.65          12.16          42.25           53.9         -6.513         -11.98         -75.94          1.879         -78.47          50.27           31.5
     1.087              -20.87          12.15          42.24          53.94         -6.513         -11.91         -74.69          2.243         -77.39          50.61          31.93
